<?xml version="1.0" encoding="utf-8"?>
<!-- Generator: Adobe Illustrator 24.2.1, SVG Export Plug-In . SVG Version: 6.00 Build 0)  -->
<svg version="1.1" id="loaderLogoVR" xmlns="http://www.w3.org/2000/svg" xmlns:xlink="http://www.w3.org/1999/xlink" x="0px"
	 y="0px" viewBox="0 0 200 200" style="enable-background:new 0 0 200 200;" xml:space="preserve">
<style type="text/css">
	.st0{fill:#15206C;}
</style>
<desc>Created with Sketch.</desc>
<g>
	<g>
		<g>
			<path class="st0" d="M17.9,107.2c-2.9,0-5.2-2-5.8-4.8l-6.4,1.2c1.1,5.7,6.1,10,12.2,10c3.4,0,6.6-1.4,8.8-3.7l-5.2-4.1
				C20.5,106.7,19.3,107.2,17.9,107.2 M17.9,95.4c1.3,0,2.6,0.5,3.6,1.2l5.2-4.1c-2.3-2.3-5.4-3.7-8.8-3.7c-6,0-11.1,4.3-12.2,10
				l6.4,1.3C12.7,97.5,15,95.4,17.9,95.4 M106.3,108.1c-3.3,0-5.6-2.4-6-5.9v-1.8c0.4-3.4,2.7-5.8,6-5.8c3.7,0,6.3,2.8,6.3,6.7
				C112.6,105.3,110,108.1,106.3,108.1 M108.2,88.9c-3.3,0-6,1.4-7.9,3.9v-3.3h-6.7V121h6.7v-11.2c1.9,2.5,4.6,3.9,7.9,3.9
				c6.3,0,10.9-5.1,10.9-12.4C119.1,94,114.5,88.9,108.2,88.9 M134.7,108.1c-3.6,0-6.6-3.1-6.6-6.8c0-3.7,3-6.7,6.6-6.7
				c3.5,0,6.5,3.1,6.5,6.7C141.3,105,138.3,108.1,134.7,108.1 M134.7,88.9c-7.1,0-13,5.6-13,12.4c0,6.7,5.9,12.4,13,12.4
				c7,0,12.9-5.7,12.9-12.4C147.6,94.6,141.8,88.9,134.7,88.9 M150.8,113.2h6.7v-32h-6.7V113.2z M182.9,98.5
				c-3.2-0.9-4.2-1.2-4.2-2.5c0-0.8,1.1-1.4,2.8-1.4c2,0,4.5,0.8,6.6,2.1l2.7-4.8c-2.6-1.7-6-2.9-9.3-2.9c-5.6,0-9.3,3.2-9.3,7.7
				c0,4.7,3.8,6,8.7,7.2c2.4,0.6,4.2,1.1,4.2,2.6c0,1-1.3,1.8-3.1,1.8c-3.2,0-5.8-1.1-7.9-2.7l-2.9,4.6c2.8,2.3,6.9,3.6,10.7,3.6
				c5.8,0,9.6-3,9.6-7.6C191.5,100.9,187,99.5,182.9,98.5 M161.9,113.2h6.7V89.5h-6.7V113.2z M165.3,79c-2.1,0-3.7,1.7-3.7,3.6
				c0,2,1.6,3.7,3.7,3.7c2,0,3.6-1.6,3.6-3.7C168.9,80.7,167.3,79,165.3,79 M84.4,81.2h-6.7l-2.5,5.1h6.7L84.4,81.2z M73.4,98.7
				c0.9-2.4,3-3.9,5.5-3.9c2.7,0,4.4,1.5,5.1,3.9H73.4z M78.6,88.9c-6.9,0-12.2,5.2-12.2,12.3c0,7.3,5.5,12.5,12.6,12.5
				c3.5,0,7.6-1.5,9.7-3.7l-4.3-4.4c-1.3,1.2-3.6,2.1-5.5,2.1c-2.8,0-4.9-1.7-5.6-4.3h17.1C90.4,94.6,86.1,88.9,78.6,88.9
				 M54.7,88.9c-3.1,0-5.7,1.4-7.2,3.5v-3h-6.7v23.7h6.7v-14c0-2.6,2.2-4.6,5-4.6c2.7,0,4.5,2,4.5,4.9v13.7h6.5V98.1
				C63.5,92.7,59.8,88.9,54.7,88.9 M32.8,79c-2.1,0-3.7,1.7-3.7,3.6c0,2,1.6,3.7,3.7,3.7c2,0,3.6-1.6,3.6-3.7
				C36.4,80.7,34.8,79,32.8,79 M29.4,113.2h6.7V89.5h-6.7L29.4,113.2z"/>
		</g>
	</g>
	<g>
		<path class="st0" d="M194.3,112.4c0,0.8-0.6,1.4-1.5,1.4c-0.8,0-1.5-0.6-1.5-1.4s0.7-1.4,1.5-1.4
			C193.6,111,194.3,111.6,194.3,112.4z M191.7,112.4c0,0.6,0.5,1.1,1.1,1.1c0.6,0,1.1-0.5,1.1-1.1s-0.5-1.1-1.1-1.1
			C192.2,111.2,191.7,111.8,191.7,112.4z M192.6,113.1h-0.3v-1.4c0.1,0,0.3,0,0.6,0c0.3,0,0.4,0,0.5,0.1c0.1,0.1,0.1,0.2,0.1,0.3
			c0,0.1-0.1,0.3-0.3,0.3v0c0.1,0,0.2,0.1,0.3,0.3c0,0.2,0.1,0.3,0.1,0.4h-0.4c0,0-0.1-0.2-0.1-0.3c0-0.1-0.1-0.2-0.3-0.2h-0.1
			L192.6,113.1L192.6,113.1z M192.6,112.3h0.1c0.2,0,0.3-0.1,0.3-0.2c0-0.1-0.1-0.2-0.3-0.2c-0.1,0-0.1,0-0.2,0L192.6,112.3
			L192.6,112.3z"/>
	</g>
</g>
</svg>
