<?xml version="1.0" encoding="utf-8"?>
<!-- Generator: Adobe Illustrator 24.2.1, SVG Export Plug-In . SVG Version: 6.00 Build 0)  -->
<svg version="1.1" id="Capa_1" xmlns="http://www.w3.org/2000/svg" xmlns:xlink="http://www.w3.org/1999/xlink" x="0px" y="0px"
	 viewBox="0 0 200 200" style="enable-background:new 0 0 200 200;" xml:space="preserve">
<style type="text/css">
	.st0{fill-rule:evenodd;clip-rule:evenodd;fill:#FFFFFF;}
	.st1{fill-rule:evenodd;clip-rule:evenodd;fill:#00533D;}
</style>
<g>
	<polygon class="st0" points="0,0 200,0 200,200 0,200 	"/>
	<path class="st1" d="M40.7,112.9c0.5,8.9,7.3,15.6,16.1,16.1c28.5,1.8,57,1.8,86.1,0c8.9-0.5,15.5-7.3,16.1-16.1
		c1.9-26.7,1.9-52.6,0-78.4c-0.6-8.9-7.3-15.5-16.1-16.1c-30.4-2.1-56.5-1.6-86.1,0c-8.9,0.5-15.6,7.3-16.1,16.1
		C39.1,60.7,39.1,86.1,40.7,112.9L40.7,112.9z"/>
	<path class="st0" d="M94.6,50.8L110.9,39c9.6-7.1,20.4-20,31.1-14.1c3,1.5,4.8,4.8,5.9,8.2c4,13.7,1.5,28.2-2.2,42.2
		c-4.8,18.9-8.5,43-27.1,47.5c-1.9,0.4-8.5,1.5-7.1,0.4c0.4-0.4,5.9-4.8,7.1-8.2c4.8-12.7,0-27.8-9.6-37.4
		C95.3,64.2,75.6,60.5,56,62c-1.5,0-3.7,0.4-4.8,1.5c-0.4,0.4-3-4-1.1-5.2c3-2.2,3.7-2.2,4.5-2.6c1.1-0.4,4.5,3.3,5.9,2.2
		c1.1-0.7,1.9-1.9,2.2-3l-5.6-0.4c6.3-8.2,20-5.2,30.1-5.6c1.5,0,3.3-1.1,0.7,1.1c-2.2,1.9-10.8,7.1-14.1,8.5
		C81.2,57.9,88.3,54.6,94.6,50.8L94.6,50.8z"/>
	<path class="st0" d="M72.7,117.2l-3.7-4.5c-10.1-12.2-11.1-28.9-13.7-44.5c6.6-1.5,13.4-1.9,20,0c5.9,1.9,5.9,8.5,6.3,8.2
		c4.5-3,6.3-2.2,9.6-2.2c12.7,0,20.7,13.7,23,25.6c0.7,4.8,1.1,10.1-1.1,14.1c-5.6,10.1-20,8.9-31.5,8.2
		C78.6,121.7,74.9,119.8,72.7,117.2L72.7,117.2z"/>
	<path class="st1" d="M52.5,182.9l4.7,0.1l2.7-31.4l0.6-7.5L72.4,183h5.7L90,145.2l2.5,37.6l8.7,0.1h0.5l-4.9-47.2h-7.8l-11.3,32.9
		l-1.3,4.3l-0.7-2.7l-10.5-34.3H59c-0.3,0-3.4,30-6.3,45.4L52.5,182.9L52.5,182.9z"/>
	<path class="st0" d="M51.6,32.3c0.7-2.6,1.9-5.2,4-6.6c3.3-2.2,7.5-2.6,11.1-1.5c10.4,3.7,25.6,19.3,24.9,19.6
		c-10.4,3-20.4-0.4-30.4,2.6c-4.8,1.5-8.5,5.2-8.9,4.5C49.7,44.9,50.1,37.4,51.6,32.3L51.6,32.3z"/>
	<path class="st1" d="M82,80.2l-0.4,1.1c-0.7,2.6,0,5.6,0.7,8.5c0.4,1.1,0.4,2.6,0.4,3.7c-0.4,1.9-1.5,3-1.5,4.8
		c0.7,0.4,0.7-1.1,1.1-1.9c1.9-4,8.9-3.7,12.2-5.2c1.1-0.4,2.6-1.9,2.2-3c0-0.4-1.1,1.1-1.9,1.5c-0.7,0.4-1.9,0.4-3,0.4
		c-3.3,0-6.3-1.9-7.5-4.8c-0.7-1.5-0.4-3.7,1.1-4.8c7.5-5.6,16,7.1,17.4,15.6c0.7,3,0.4,6.3-0.7,9.2c-0.7,2.2-2.6,3.7-4.8,4
		c-2.6,0.4-5.6,0.7-7.8-0.7c-0.4-0.4,0.7-0.7,0.7-1.9s-1.9-1.5-1.9-1.5s0-2.2-1.9-3.3c-2.6-1.5-5.9-1.1-7.8,1.1
		c-1.5,2.2-1.5,5.2,0.4,6.3c2.2,1.5,4.8,1.1,7.5,0.7c1.1,0,1.9,0.7,3.3,0.7c1.5,0-2.2,1.5-3,1.5c-2.2,0.4-5.2,0.4-7.5-0.7
		c-0.7-0.4,1.5,4,5.6,5.2c4.8,1.5,9.6,1.5,13,1.1c7.5-0.7,11.1-10.4,10.8-17.8c-0.4-9.2-5.2-19.3-14.1-22.6
		C90.6,75.7,84.2,75.7,82,80.2L82,80.2z"/>
	<path class="st1" d="M105.3,173.4c-0.3,2.3-0.9,4.8-1.7,7.6c3.8,1.2,7.5,1.8,10.8,1.8c9.2,0,16.8-4.9,16.8-14.4
		c0-2.4-0.5-4.8-2.7-7.2c-0.5-0.6-1.2-1.6-7.9-5c-1.3-0.6-2.5-1.1-3.4-1.6c-2.1-1-3.5-1.8-4.7-2.7c-2.2-1.9-3-3.6-3-5.5
		c0-3.5,2.7-6.7,7.9-6.7c4,0,7.1,2.4,8.9,5.7h0.7c0.4-2.3,0.9-4.1,1.7-6c-3.5-2.3-7.5-3.5-11.1-3.5c-6.6,0-11.6,3.2-13.7,8.2
		c-0.7,1.7-1.1,3.6-1.1,5.6c0,3.2,0.9,5.9,3.3,8.5c1.8,2,5.5,3.8,8.5,5.2c0.4,0.1,0.7,0.3,0.9,0.4c0.3,0.1,0.5,0.2,1.1,0.4
		c2.5,0.9,7.9,3,7.9,8c0,3.8-3.1,7.4-8.9,7.4c-4.4,0-7.8-2.6-9.6-6.1L105.3,173.4L105.3,173.4z"/>
	<path class="st1" d="M133.1,173.4c-0.3,2.3-0.9,4.8-1.7,7.6c3.8,1.2,7.5,1.8,10.8,1.8c9.2,0,16.8-4.9,16.8-14.4
		c0-2.4-0.5-4.8-2.7-7.2c-0.5-0.6-1.2-1.6-7.9-5c-1.3-0.6-2.5-1.1-3.4-1.6c-2.1-1-3.5-1.8-4.7-2.7c-2.2-1.9-3-3.6-3-5.5
		c0-3.5,2.7-6.7,7.9-6.7c4,0,7.1,2.4,8.9,5.7h0.7c0.4-2.3,0.9-4.1,1.7-6c-3.5-2.3-7.5-3.5-11.1-3.5c-6.6,0-11.6,3.1-13.7,8.2
		c-0.7,1.7-1.1,3.6-1.1,5.6c0,3.1,0.9,5.9,3.3,8.5c1.8,2,5.5,3.8,8.5,5.2c0.4,0.1,0.7,0.3,0.9,0.4c0.3,0.1,0.5,0.2,1.1,0.4
		c2.5,0.9,7.9,3,7.9,8c0,3.8-3.1,7.4-8.9,7.4c-4.4,0-7.8-2.6-9.6-6.1L133.1,173.4L133.1,173.4z"/>
	<path class="st1" d="M108,49.4l-1.9,2.2c-1.9,2.2-1.1,5.9,0.4,8.5c7.5,14.1,17.4,28.2,17,43c0.7,0.4,1.1-0.4,1.1-1.1
		c0.4-2.2,0.7-5.6,0.7-8.2c-0.4-13.4-8.5-24.8-11.5-37.4c-1.5-6.6,2.6-13,8.2-16.7C116.5,41.6,111.7,45.3,108,49.4L108,49.4z"/>
	<path class="st1" d="M41,182.9h7.6c-1,0-1.8-47.2-0.3-47l-7.6-0.1C42,135.7,42.3,182.9,41,182.9L41,182.9z"/>
</g>
</svg>
