<?xml version="1.0" encoding="utf-8"?>
<!-- Generator: Adobe Illustrator 24.2.1, SVG Export Plug-In . SVG Version: 6.00 Build 0)  -->
<svg version="1.1" id="Capa_1" xmlns="http://www.w3.org/2000/svg" xmlns:xlink="http://www.w3.org/1999/xlink" x="0px" y="0px"
	 viewBox="0 0 1908.3 720" style="enable-background:new 0 0 1908.3 720;" xml:space="preserve">
<style type="text/css">
	.st0{fill:#FFFFFF;}
</style>
<g>
	<path class="st0" d="M82.2,350.3c44.6-0.5,81.9-31.4,92.3-72.9c14.4-47.1,29.4-86.5,65.6-115.9c0.7-0.6,1.5-1.2,2.2-1.8
		c0.2-0.2,0.5-0.4,0.7-0.6l0,0c6.5-6.2,10.7-14.9,10.7-24.6c0-10.8-5.1-20.4-12.9-26.6c0,0,0.1,0,0.1,0c-6.3-4.9-14.2-7.9-22.8-7.9
		c-9.6,0-18.3,3.7-24.8,9.7c-29.3,21.9-51.5,47.3-68.2,76.8c0,0-2,2.5-4.9,0.8c-3-1.7-2.2-4.1-2.2-4.1
		c17.7-31.3,40.9-57.4,70.5-79.7c8.2-7.3,18.7-11.4,29.6-11.4c11.2,0,21.5,4.2,29.3,11.1c38.4-26.8,83-43.9,130.9-46.4v0
		c15.5-0.3,27.9-12.9,27.9-28.4c0-15.7-12.7-28.4-28.4-28.4c-0.4,0-0.7,0-1,0.1c-0.2,0-0.4,0-0.6,0C225.8,0,97.6,94.8,47.9,227.8
		l-20.2,8.1c0,0-29,15.3-27.7,114.5L82.2,350.3L82.2,350.3L82.2,350.3z"/>
	<path class="st0" d="M82.2,369.7c44.6,0.6,81.9,31.4,92.3,72.9c14.4,47.1,29.4,86.5,65.6,115.9c0.7,0.6,1.5,1.2,2.2,1.8
		c0.2,0.2,0.5,0.4,0.7,0.6l0,0c6.5,6.2,10.7,14.9,10.7,24.6c0,10.8-5.1,20.4-12.9,26.6c0,0,0.1,0,0.1,0.1c-6.3,5-14.2,7.9-22.8,7.9
		c-9.6,0-18.3-3.7-24.8-9.7c-29.3-21.9-51.5-47.2-68.2-76.8c0,0-2-2.5-4.9-0.8s-2.2,4-2.2,4c17.7,31.3,40.9,57.5,70.5,79.7
		c8.2,7.3,18.7,11.4,29.6,11.4c11.2,0,21.5-4.2,29.3-11.1c38.4,26.8,83,43.9,130.9,46.3v0c15.5,0.3,27.9,12.9,27.9,28.4
		c0,15.7-12.7,28.4-28.4,28.4c-0.4,0-0.7,0-1,0h-0.6c-150.3,0-278.5-94.7-328.2-227.7l-20.2-8.1c0,0-29-15.3-27.7-114.5L82.2,369.7
		L82.2,369.7L82.2,369.7z"/>
	<g>
		<path class="st0" d="M407.5,257.2C477.7,298.5,518,333.5,528,361.7c4.3-9.4,14-15.7,24.9-15c9.5,0.6,17.5,6.4,21.4,14.4
			c2.6-6.2,5.9-12.4,9.8-18.5c-8.4-46.1-43.2-85.2-91.7-96.6c-30-7-59.9-2.3-85.1,11.1C407.3,257.1,407.4,257.2,407.5,257.2z"/>
		<path class="st0" d="M586,364.3c-3.5,8.1-5.4,16.1-5,23.5c0.1,2.7,0.4,5.4,0.8,8.1c0.3-1.3,0.7-2.6,1-3.9
			C585,382.7,586,373.5,586,364.3z"/>
		<path class="st0" d="M518.2,376.3c1.8-28.8-57.6-73.2-122.4-112.2c-24.1,16.5-42.3,41.7-49.5,72.3
			C331,401.4,371,466.4,435.6,482.2C479.6,445.2,516.2,406.3,518.2,376.3z"/>
		<path class="st0" d="M568.9,390.7c-5,4.8-11.9,7.6-19.3,7.1c-8.8-0.5-16.3-5.5-20.4-12.6c-6.6,30.5-38.6,65.8-77.8,99.8
			c51.5,5.7,100.6-22.2,122.7-68.1C571.3,408.1,569.6,399.4,568.9,390.7z"/>
		<path class="st0" d="M538,371.4c-0.5,7.3,5.1,13.7,12.4,14.1c7.3,0.4,13.7-5.1,14.1-12.4c0.5-7.3-5.1-13.7-12.4-14.2
			C544.8,358.5,538.4,364.1,538,371.4z"/>
	</g>
	<path class="st0" d="M770.7,581.9l-8.9-18.7h-21.9l-8.8,18.7l-5-0.6l24.2-50.1h1.4l23.6,50.1L770.7,581.9z M750.8,540.4l-8.8,18.5
		h17.6L750.8,540.4z"/>
	<path class="st0" d="M796.4,576.5l-0.1,4.3c-1.5,0.5-3.1,0.8-4.6,1c-1.6,0.1-3-0.1-4.4-0.5c-1.3-0.5-2.5-1.2-3.5-2.3
		c-1-1.1-1.6-2.6-1.9-4.4h-0.1c-0.1-7.2-0.1-14.5-0.1-21.5c0-7.1,0.1-14.3,0.1-21.5c0.7-0.2,1.4-0.4,2.2-0.6
		c0.7-0.2,1.5-0.4,2.2-0.7v41.2c0,1.1,0.1,2,0.2,2.8s0.4,1.5,0.8,2c0.4,0.5,1,0.9,1.7,1.2c0.7,0.2,1.7,0.3,2.9,0.3
		c0.8,0,1.6-0.1,2.4-0.3C794.9,577.1,795.7,576.8,796.4,576.5"/>
	<path class="st0" d="M819.7,580.8c-1.8,0.7-3.5,1.1-5.2,1.1c-1.7,0-3.2-0.3-4.6-1c-1.4-0.7-2.5-1.7-3.3-3c-0.9-1.3-1.3-3.1-1.3-5.2
		v-21.8h-6.8l0.6-4h6.1v-8l4.4-3.1v11.1h9.4v4h-9.4v20.5c0,1.1,0.1,2,0.2,2.8c0.1,0.8,0.4,1.5,0.8,2c0.4,0.5,1,0.9,1.7,1.2
		c0.7,0.2,1.7,0.3,2.9,0.3c0.8,0,1.6-0.1,2.4-0.3c0.8-0.2,1.6-0.5,2.3-0.8L819.7,580.8z"/>
	<path class="st0" d="M844.9,582.2l-0.3-4.2c-1.1,1.2-2.5,2.2-4.1,3c-1.6,0.7-3.2,1.1-4.9,1.1c-3.1,0-5.5-0.7-7.4-2.1
		c-1.8-1.4-3.1-3.2-3.8-5.1c-0.7-2-0.7-4.1-0.2-6.3c0.5-2.2,1.6-4.1,3.3-5.7c1.7-1.6,3.9-2.7,6.8-3.3s6.2-0.2,10.2,1v-4.1
		c0-2.2-0.7-3.7-2.1-4.7c-1.4-1-3.1-1.5-5.1-1.5c-1.8,0-3.7,0.4-5.6,1.2c-1.9,0.8-3.6,1.7-5.1,2.7l0.9-5c1.6-0.8,3.3-1.5,5-2.1
		s3.6-0.9,5.4-0.9c3,0,5.3,0.5,6.8,1.5c1.5,1,2.6,2.4,3.2,4.1c0.6,1.7,0.9,3.6,1,5.8c0,2.2,0,4.4,0,6.7v8.3c0,2.7,0.1,5.4,0.2,8.2
		L844.9,582.2z M843.8,565.3c-0.5-0.5-1-0.9-1.7-1.2c-0.6-0.3-1.3-0.6-2-0.8c-0.7-0.2-1.3-0.3-1.7-0.3c-1.2,0-2.5,0.2-3.7,0.5
		c-1.2,0.4-2.3,0.9-3.2,1.6c-1,0.7-1.7,1.6-2.3,2.6c-0.6,1-0.9,2.3-0.9,3.6c0,1.9,0.6,3.3,1.8,4.4c1.2,1.1,2.7,1.8,4.4,2
		c1.7,0.2,3.4,0,5.2-0.7c1.8-0.8,3.2-2,4.2-3.8c0.1-0.1,0.2-0.4,0.4-0.7c0.1-0.3,0.2-0.6,0.2-0.8c0-0.8,0-1.7,0-2.5
		c0-0.9,0-1.7,0-2.5C844.5,566.3,844.2,565.8,843.8,565.3"/>
	<polygon class="st0" points="905.3,581.3 877.2,581.3 877.2,532 904.4,532 904.9,536.4 882,536.4 882,554.1 902.9,554.1 
		902.9,558.6 882,558.6 882,576.8 905.8,576.8 	"/>
	<path class="st0" d="M914.4,574c1.3,1.1,2.7,2,4.3,2.7c1.6,0.7,3.2,1.1,4.9,1.1c0.9,0,1.7-0.1,2.6-0.3c0.9-0.2,1.7-0.5,2.3-1
		c0.7-0.5,1.3-1,1.7-1.7s0.7-1.5,0.7-2.5c0-1.4-0.4-2.5-1.3-3.3c-0.9-0.8-2-1.5-3.3-2c-1.3-0.5-2.8-1.1-4.3-1.6
		c-1.5-0.5-3-1.1-4.3-1.8c-1.3-0.7-2.4-1.7-3.3-2.9c-0.9-1.2-1.3-2.8-1.3-4.8c0-2.5,0.8-4.5,2.3-6c1.5-1.6,3.4-2.6,5.6-3.1
		c2.2-0.5,4.5-0.5,7,0.1c2.5,0.5,4.6,1.6,6.4,3.3l-1.3,4.1c-1.2-1-2.5-1.8-4-2.6c-1.4-0.7-2.9-1.1-4.5-1.1c-0.9,0-1.7,0.1-2.6,0.3
		c-0.8,0.2-1.6,0.5-2.3,0.9c-0.7,0.5-1.3,1-1.7,1.7c-0.4,0.7-0.7,1.5-0.7,2.5c0,1.3,0.4,2.4,1.3,3.1c0.9,0.7,2,1.3,3.3,1.9
		c1.3,0.6,2.7,1,4.3,1.5c1.5,0.5,2.9,1.1,4.2,1.9c1.3,0.7,2.4,1.7,3.3,3c0.9,1.2,1.3,2.8,1.3,4.8c0,1.6-0.3,3-1,4.3
		c-0.7,1.2-1.5,2.3-2.7,3.2c-1.1,0.9-2.4,1.5-3.8,2c-1.4,0.5-2.8,0.7-4.3,0.7c-2.1,0-4.1-0.4-6-1.2c-1.9-0.8-3.6-1.9-5.1-3.3
		L914.4,574z"/>
	<path class="st0" d="M946.3,595.3l-4.5,0.8v-49l4.4-0.6v4.3c1.5-1.5,3.2-2.7,5.2-3.5c2-0.8,4-1.2,6.1-1.2c2.7,0,5.1,0.5,7.2,1.4
		c2.2,0.9,4,2.2,5.6,3.8c1.5,1.6,2.8,3.5,3.6,5.8c0.8,2.2,1.3,4.6,1.3,7.3c0,2.4-0.4,4.6-1.3,6.7c-0.9,2.2-2.1,4-3.7,5.7
		c-1.6,1.7-3.4,3-5.5,4c-2.1,1-4.3,1.4-6.7,1.4c-2.2,0-4.3-0.3-6.3-1.1c-2.1-0.7-3.9-1.8-5.5-3.3V595.3z M969.2,557.7
		c-1-1.9-2.2-3.4-3.7-4.5c-1.5-1.2-3.2-2-5-2.4c-1.9-0.4-3.7-0.5-5.4-0.2c-1.8,0.3-3.4,1-4.8,2c-1.5,1-2.6,2.4-3.3,4.2
		c-0.1,0.3-0.3,0.6-0.4,1c-0.1,0.3-0.2,0.7-0.2,1.1v11c0,0.2,0.1,0.6,0.3,0.9c0.2,0.4,0.3,0.7,0.4,0.9c0.9,1.8,2.1,3.2,3.7,4.1
		c1.5,1,3.2,1.6,4.9,1.8c1.7,0.2,3.5,0.1,5.2-0.4c1.8-0.5,3.4-1.3,4.8-2.4c1.4-1.1,2.6-2.6,3.5-4.3c0.9-1.7,1.3-3.8,1.3-6h0.1
		C970.7,561.8,970.2,559.5,969.2,557.7"/>
	<path class="st0" d="M1013.2,558.5l-26.6,8.6c0.4,1.6,1,3,1.8,4.3c0.8,1.3,1.8,2.4,2.9,3.4c1.1,0.9,2.4,1.6,3.8,2.2
		c1.4,0.5,3,0.8,4.6,0.8c2.4,0,4.7-0.6,6.8-1.7c2.1-1.2,4.1-2.5,5.9-4v5.2c-2,1.8-4.1,3.1-6.4,3.9c-2.3,0.8-4.5,1.2-6.8,1.1
		c-2.3,0-4.4-0.5-6.5-1.4c-2.1-0.9-4-2.2-5.5-3.8c-1.6-1.6-2.9-3.5-3.8-5.7c-1-2.2-1.4-4.7-1.4-7.5c0-3.6,0.7-6.7,2.2-9.2
		c1.4-2.5,3.2-4.5,5.4-5.8c2.2-1.4,4.5-2.3,7.1-2.5c2.6-0.3,5.1,0,7.4,0.8c2.3,0.8,4.3,2.2,6.1,4.1
		C1011.7,553,1012.8,555.5,1013.2,558.5 M1007.1,556.1c-0.6-1.7-1.4-3-2.7-3.9c-1.2-0.9-2.6-1.5-4.1-1.8c-1.5-0.2-3.1-0.2-4.7,0.3
		c-1.6,0.4-3.1,1.1-4.4,2.2c-1.3,1.1-2.5,2.5-3.4,4.2s-1.4,3.8-1.5,6.2L1007.1,556.1z"/>
	<path class="st0" d="M1041.9,581.2c-2,0.5-3.9,0.8-5.7,0.8c-4,0-7.3-0.9-9.9-2.7c-2.6-1.8-4.6-4-5.9-6.7c-1.3-2.7-2-5.6-1.9-8.7
		c0-3.1,0.7-6,2.1-8.7c1.4-2.7,3.3-4.9,5.9-6.7c2.6-1.8,5.9-2.7,9.8-2.7c1.9,0,3.7,0.3,5.6,0.9c1.8,0.6,3.6,1.3,5.2,2.2l-1.6,4.2
		c-1.4-0.9-2.8-1.5-4.4-2.1c-1.5-0.5-3.1-0.8-4.8-0.8c-2.9,0-5.4,0.7-7.4,2c-2,1.3-3.5,3-4.4,5c-1,2-1.5,4.2-1.5,6.6
		c0,2.4,0.5,4.6,1.5,6.6c1,2,2.5,3.7,4.4,5c1.9,1.4,4.4,2,7.3,2c1.7,0,3.3-0.2,4.9-0.7c1.6-0.5,3.1-1.2,4.5-2.2l1.5,4
		C1045.7,579.9,1043.9,580.7,1041.9,581.2"/>
	<path class="st0" d="M1059.9,539.6c-0.6,0.4-1.2,0.6-1.9,0.6c-0.7,0-1.3-0.2-1.8-0.7s-0.8-1.1-0.8-2c0-0.9,0.3-1.6,0.8-2
		c0.5-0.4,1.2-0.7,1.8-0.7c0.7,0,1.3,0.2,1.9,0.7c0.5,0.5,0.8,1.1,0.8,2C1060.7,538.6,1060.4,539.2,1059.9,539.6 M1056.1,581.7
		v-34.2c0.7-0.2,1.4-0.5,2.2-0.7c0.8-0.2,1.5-0.5,2.2-0.7v34.8L1056.1,581.7z"/>
	<path class="st0" d="M1090.7,582.2l-0.4-4.2c-1.1,1.2-2.5,2.2-4,3c-1.6,0.7-3.2,1.1-4.9,1.1c-3.1,0-5.6-0.7-7.4-2.1
		c-1.8-1.4-3.1-3.2-3.7-5.1c-0.7-2-0.8-4.1-0.2-6.3c0.5-2.2,1.6-4.1,3.3-5.7c1.7-1.6,3.9-2.7,6.8-3.3c2.8-0.6,6.2-0.2,10.2,1v-4.1
		c0-2.2-0.7-3.7-2.1-4.7c-1.4-1-3.1-1.5-5.1-1.5c-1.8,0-3.7,0.4-5.6,1.2c-1.9,0.8-3.6,1.7-5.1,2.7l0.8-5c1.6-0.8,3.3-1.5,5.1-2.1
		c1.7-0.6,3.5-0.9,5.4-0.9c3,0,5.3,0.5,6.9,1.5c1.5,1,2.6,2.4,3.2,4.1c0.6,1.7,0.9,3.6,1,5.8c0,2.2,0,4.4,0,6.7v8.3
		c0,2.7,0.1,5.4,0.2,8.2L1090.7,582.2z M1089.6,565.3c-0.5-0.5-1-0.9-1.7-1.2c-0.6-0.3-1.3-0.6-2-0.8c-0.7-0.2-1.3-0.3-1.8-0.3
		c-1.2,0-2.4,0.2-3.7,0.5c-1.2,0.4-2.3,0.9-3.2,1.6c-0.9,0.7-1.7,1.6-2.3,2.6c-0.6,1-0.9,2.3-0.9,3.6c0,1.9,0.6,3.3,1.8,4.4
		c1.2,1.1,2.7,1.8,4.4,2c1.7,0.2,3.4,0,5.2-0.7c1.7-0.8,3.1-2,4.2-3.8c0.1-0.1,0.2-0.4,0.3-0.7c0.1-0.3,0.2-0.6,0.2-0.8
		c0-0.8,0-1.7,0-2.5c0-0.9,0-1.7,0-2.5C1090.3,566.3,1090.1,565.8,1089.6,565.3"/>
	<path class="st0" d="M1119.8,576.5l-0.1,4.3c-1.5,0.5-3.1,0.8-4.6,1c-1.6,0.1-3-0.1-4.4-0.5c-1.4-0.5-2.5-1.2-3.5-2.3
		c-1-1.1-1.6-2.6-1.9-4.4h-0.1c-0.1-7.2-0.1-14.5-0.1-21.5c0-7.1,0.1-14.3,0.1-21.5c0.7-0.2,1.4-0.4,2.2-0.6
		c0.8-0.2,1.5-0.4,2.2-0.7v41.2c0,1.1,0.1,2,0.2,2.8c0.1,0.8,0.4,1.5,0.8,2c0.4,0.5,1,0.9,1.7,1.2c0.7,0.2,1.7,0.3,2.9,0.3
		c0.8,0,1.6-0.1,2.3-0.3C1118.3,577.1,1119.1,576.8,1119.8,576.5"/>
	<path class="st0" d="M1131.4,539.6c-0.5,0.4-1.2,0.6-1.9,0.6c-0.7,0-1.2-0.2-1.8-0.7c-0.5-0.4-0.8-1.1-0.8-2c0-0.9,0.3-1.6,0.8-2
		c0.6-0.4,1.2-0.7,1.8-0.7c0.7,0,1.4,0.2,1.9,0.7c0.6,0.5,0.8,1.1,0.8,2C1132.2,538.6,1131.9,539.2,1131.4,539.6 M1127.6,581.7
		v-34.2c0.7-0.2,1.5-0.5,2.2-0.7c0.7-0.2,1.5-0.5,2.2-0.7v34.8L1127.6,581.7z"/>
	<path class="st0" d="M1170.8,581.8v-4.3c-1.5,1.5-3.3,2.6-5.3,3.5c-2,0.8-4.1,1.2-6.2,1.2c-2.5,0-4.9-0.5-7.1-1.4
		c-2.2-0.9-4-2.2-5.6-3.8c-1.6-1.6-2.8-3.6-3.7-5.7c-0.9-2.2-1.4-4.5-1.4-7c0-2.6,0.4-5,1.4-7.2c0.9-2.2,2.2-4.1,3.8-5.7
		c1.6-1.6,3.5-2.9,5.7-3.8c2.2-0.9,4.6-1.4,7.2-1.4c2.1,0,4.1,0.4,6,1.1c1.9,0.8,3.6,1.8,5.2,3.3v-19c0.8-0.2,1.5-0.4,2.2-0.6
		c0.7-0.2,1.4-0.4,2.2-0.7v51.1L1170.8,581.8z M1170.8,559c0-0.3-0.1-0.6-0.2-1.1c-0.2-0.4-0.3-0.8-0.4-1c-0.8-1.9-2-3.4-3.6-4.4
		c-1.5-1-3.2-1.7-5-2c-1.8-0.3-3.6-0.2-5.4,0.3c-1.8,0.5-3.5,1.3-5,2.5c-1.5,1.2-2.8,2.7-3.7,4.5c-1,1.8-1.4,3.9-1.4,6.4
		c0,2.2,0.4,4.3,1.3,6c0.9,1.8,2.1,3.2,3.5,4.4c1.4,1.2,3.1,2,4.9,2.6c1.8,0.5,3.6,0.7,5.3,0.6c1.7-0.2,3.4-0.7,5-1.6
		c1.6-0.9,2.8-2.2,3.8-4c0.2-0.4,0.4-0.8,0.6-1.3c0.2-0.5,0.3-1,0.3-1.5L1170.8,559L1170.8,559z"/>
	<path class="st0" d="M1203.7,582.2l-0.4-4.2c-1.2,1.2-2.5,2.2-4.1,3c-1.6,0.7-3.2,1.1-4.9,1.1c-3.1,0-5.6-0.7-7.4-2.1
		c-1.9-1.4-3.1-3.2-3.8-5.1c-0.7-2-0.7-4.1-0.2-6.3c0.5-2.2,1.7-4.1,3.3-5.7c1.7-1.6,3.9-2.7,6.8-3.3c2.8-0.6,6.2-0.2,10.2,1v-4.1
		c0-2.2-0.7-3.7-2.1-4.7c-1.4-1-3.1-1.5-5.1-1.5c-1.8,0-3.7,0.4-5.6,1.2c-1.9,0.8-3.6,1.7-5.1,2.7l0.9-5c1.6-0.8,3.3-1.5,5-2.1
		c1.7-0.6,3.6-0.9,5.4-0.9c3,0,5.3,0.5,6.9,1.5c1.5,1,2.6,2.4,3.2,4.1c0.6,1.7,0.9,3.6,0.9,5.8c0,2.2,0,4.4,0,6.7v8.3
		c0,2.7,0.1,5.4,0.2,8.2L1203.7,582.2z M1202.6,565.3c-0.5-0.5-1.1-0.9-1.7-1.2c-0.6-0.3-1.3-0.6-2-0.8c-0.7-0.2-1.2-0.3-1.7-0.3
		c-1.2,0-2.4,0.2-3.7,0.5c-1.2,0.4-2.3,0.9-3.2,1.6c-0.9,0.7-1.7,1.6-2.3,2.6c-0.6,1-0.9,2.3-0.9,3.6c0,1.9,0.6,3.3,1.8,4.4
		c1.2,1.1,2.7,1.8,4.3,2c1.7,0.2,3.4,0,5.2-0.7c1.8-0.8,3.2-2,4.2-3.8c0.1-0.1,0.2-0.4,0.3-0.7c0.2-0.3,0.2-0.6,0.2-0.8
		c0-0.8,0-1.7,0-2.5c0-0.9,0-1.7,0-2.5C1203.3,566.3,1203,565.8,1202.6,565.3"/>
	<path class="st0" d="M1244.8,581.8v-4.3c-1.5,1.5-3.3,2.6-5.3,3.5c-2,0.8-4.1,1.2-6.3,1.2c-2.5,0-4.9-0.5-7-1.4
		c-2.2-0.9-4-2.2-5.6-3.8c-1.6-1.6-2.8-3.6-3.7-5.7c-0.9-2.2-1.3-4.5-1.3-7c0-2.6,0.4-5,1.4-7.2c0.9-2.2,2.2-4.1,3.8-5.7
		c1.6-1.6,3.5-2.9,5.7-3.8c2.2-0.9,4.6-1.4,7.1-1.4c2.1,0,4.1,0.4,6,1.1c1.9,0.8,3.6,1.8,5.1,3.3v-19c0.8-0.2,1.5-0.4,2.3-0.6
		c0.7-0.2,1.4-0.4,2.2-0.7v51.1L1244.8,581.8z M1244.8,559c0-0.3-0.1-0.6-0.2-1.1c-0.2-0.4-0.3-0.8-0.4-1c-0.8-1.9-2-3.4-3.5-4.4
		c-1.6-1-3.2-1.7-5-2c-1.8-0.3-3.6-0.2-5.4,0.3c-1.8,0.5-3.5,1.3-5,2.5c-1.5,1.2-2.7,2.7-3.7,4.5c-1,1.8-1.4,3.9-1.4,6.4
		c0,2.2,0.4,4.3,1.3,6c0.9,1.8,2.1,3.2,3.5,4.4c1.4,1.2,3.1,2,4.9,2.6c1.8,0.5,3.6,0.7,5.3,0.6c1.8-0.2,3.4-0.7,5-1.6
		c1.6-0.9,2.8-2.2,3.8-4c0.2-0.4,0.4-0.8,0.6-1.3c0.2-0.5,0.3-1,0.3-1.5L1244.8,559L1244.8,559z"/>
	<path class="st0" d="M1307.3,558.5l-26.7,8.6c0.3,1.6,0.9,3,1.8,4.3c0.8,1.3,1.8,2.4,2.9,3.4c1.1,0.9,2.4,1.6,3.8,2.2
		c1.4,0.5,2.9,0.8,4.6,0.8c2.4,0,4.7-0.6,6.8-1.7c2.1-1.2,4.1-2.5,5.9-4v5.2c-2,1.8-4.1,3.1-6.4,3.9c-2.3,0.8-4.6,1.2-6.8,1.1
		c-2.3,0-4.5-0.5-6.6-1.4c-2.1-0.9-3.9-2.2-5.5-3.8c-1.6-1.6-2.9-3.5-3.8-5.7s-1.4-4.7-1.4-7.5c0-3.6,0.7-6.7,2.1-9.2
		c1.4-2.5,3.2-4.5,5.4-5.8c2.2-1.4,4.5-2.3,7.1-2.5c2.6-0.3,5.1,0,7.4,0.8c2.3,0.8,4.3,2.2,6.1,4.1
		C1305.7,553,1306.8,555.5,1307.3,558.5 M1301.2,556.1c-0.6-1.7-1.5-3-2.7-3.9c-1.2-0.9-2.6-1.5-4.1-1.8c-1.5-0.2-3.1-0.2-4.7,0.3
		c-1.6,0.4-3.1,1.1-4.5,2.2c-1.3,1.1-2.5,2.5-3.4,4.2c-0.9,1.7-1.4,3.8-1.5,6.2L1301.2,556.1z"/>
	<path class="st0" d="M1337.5,581.7v-21.9c0-2.8-0.7-5.1-2-6.9c-1.4-1.8-3.5-2.7-6.5-2.7c-2.1,0-4,0.6-5.7,1.7
		c-1.7,1.1-2.9,2.6-3.9,4.5c-0.1,0.1-0.2,0.4-0.3,0.8c-0.2,0.5-0.3,0.7-0.3,0.8v22.9l-4.4,0.8v-34.6c1.4-0.3,2.9-0.6,4.3-1.1v5.5
		c1.2-1.7,2.8-3,4.4-4c1.7-1,3.6-1.5,5.8-1.5c4.3,0,7.5,1.2,9.7,3.7c2.2,2.5,3.2,5.8,3.2,9.9v21.2L1337.5,581.7z"/>
	<path class="st0" d="M1420,566.7c-1.3,3.1-3.2,5.8-5.5,8.1c-2.4,2.3-5.1,4.1-8.2,5.4c-3.1,1.3-6.5,2-10.1,2c-3.6,0-7-0.7-10.2-2
		c-3.1-1.3-5.9-3.1-8.2-5.4c-2.3-2.3-4.2-5-5.6-8.1c-1.4-3.1-2.1-6.5-2.1-10.1c0-3.6,0.7-7,2-10.1c1.4-3.1,3.2-5.8,5.6-8.1
		c2.3-2.3,5.1-4.1,8.2-5.4c3.1-1.3,6.5-2,10.1-2c3.6,0,6.9,0.7,10.1,2c3.2,1.3,5.9,3.1,8.3,5.4c2.3,2.3,4.2,5,5.5,8.1
		c1.4,3.1,2.1,6.5,2.1,10.1S1421.4,563.6,1420,566.7 M1415.4,548.5c-1.1-2.5-2.6-4.8-4.5-6.7c-1.9-1.9-4.2-3.4-6.7-4.5
		c-2.5-1.1-5.2-1.7-8.1-1.7c-2.9,0-5.7,0.5-8.2,1.6c-2.6,1.1-4.8,2.6-6.7,4.5c-1.9,1.9-3.3,4.1-4.4,6.7c-1.1,2.5-1.7,5.3-1.7,8.2
		c0,2.9,0.6,5.7,1.7,8.2c1.1,2.5,2.6,4.8,4.4,6.7c1.9,1.9,4.1,3.4,6.6,4.5c2.6,1.1,5.3,1.6,8.2,1.6c2.9,0,5.6-0.5,8.2-1.7
		c2.6-1.1,4.8-2.6,6.7-4.5c1.9-1.9,3.4-4.1,4.5-6.7c1.1-2.6,1.6-5.3,1.6-8.2C1417,553.7,1416.5,551,1415.4,548.5"/>
	<path class="st0" d="M1444.2,534.9c-0.8-0.2-1.5-0.2-2.2-0.2c-2.1,0-3.6,0.3-4.7,1c-1.1,0.7-1.8,1.5-2.3,2.7
		c-0.5,1.1-0.7,2.4-0.8,3.9c0,1.5,0,3,0,4.6h8.2v4h-8.2v30l-4.4,0.8v-30.7h-5.4l0.6-4h4.7v-4.6c0-4,1.2-7,3.5-9c2.3-2,5.4-3,9.2-3
		c1.1,0,2.2,0.2,3.2,0.8l0.7,4.3C1445.6,535.2,1444.9,535,1444.2,534.9"/>
	<path class="st0" d="M1466.9,580.8c-1.7,0.7-3.5,1.1-5.2,1.1c-1.7,0-3.2-0.3-4.6-1c-1.4-0.7-2.5-1.7-3.4-3
		c-0.9-1.3-1.3-3.1-1.3-5.2v-21.8h-6.8l0.6-4h6.1v-8l4.4-3.1v11.1h9.4v4h-9.4v20.5c0,1.1,0.1,2,0.2,2.8c0.1,0.8,0.4,1.5,0.8,2
		c0.4,0.5,0.9,0.9,1.7,1.2c0.7,0.2,1.7,0.3,2.9,0.3c0.8,0,1.6-0.1,2.3-0.3c0.8-0.2,1.6-0.5,2.3-0.8L1466.9,580.8z"/>
	<path class="st0" d="M1492.2,582.2l-0.3-4.2c-1.1,1.2-2.5,2.2-4.1,3c-1.5,0.7-3.2,1.1-4.9,1.1c-3.1,0-5.6-0.7-7.4-2.1
		c-1.8-1.4-3.1-3.2-3.8-5.1c-0.7-2-0.7-4.1-0.2-6.3c0.5-2.2,1.6-4.1,3.3-5.7c1.7-1.6,3.9-2.7,6.8-3.3c2.8-0.6,6.2-0.2,10.2,1v-4.1
		c0-2.2-0.7-3.7-2.1-4.7c-1.4-1-3.1-1.5-5.1-1.5c-1.8,0-3.7,0.4-5.6,1.2c-1.9,0.8-3.6,1.7-5.1,2.7l0.9-5c1.6-0.8,3.3-1.5,5.1-2.1
		c1.8-0.6,3.6-0.9,5.4-0.9c3,0,5.3,0.5,6.8,1.5c1.6,1,2.6,2.4,3.2,4.1c0.6,1.7,0.9,3.6,1,5.8c0,2.2,0,4.4,0,6.7v8.3
		c0,2.7,0.1,5.4,0.2,8.2L1492.2,582.2z M1491.1,565.3c-0.5-0.5-1-0.9-1.7-1.2c-0.6-0.3-1.3-0.6-2-0.8c-0.7-0.2-1.2-0.3-1.7-0.3
		c-1.2,0-2.4,0.2-3.7,0.5c-1.2,0.4-2.2,0.9-3.2,1.6c-1,0.7-1.7,1.6-2.3,2.6c-0.6,1-0.9,2.3-0.9,3.6c0,1.9,0.6,3.3,1.8,4.4
		c1.2,1.1,2.7,1.8,4.4,2c1.7,0.2,3.4,0,5.2-0.7c1.7-0.8,3.2-2,4.2-3.8c0.1-0.1,0.2-0.4,0.4-0.7c0.1-0.3,0.2-0.6,0.2-0.8
		c0-0.8,0-1.7,0-2.5c0-0.9,0-1.7,0-2.5C1491.7,566.3,1491.5,565.8,1491.1,565.3"/>
	<path class="st0" d="M1521.3,576.5l-0.1,4.3c-1.5,0.5-3,0.8-4.6,1c-1.6,0.1-3-0.1-4.4-0.5c-1.3-0.5-2.5-1.2-3.5-2.3
		c-1-1.1-1.6-2.6-1.9-4.4h-0.1c-0.1-7.2-0.1-14.5-0.1-21.5c0-7.1,0.1-14.3,0.1-21.5c0.7-0.2,1.4-0.4,2.2-0.6
		c0.7-0.2,1.5-0.4,2.2-0.7v41.2c0,1.1,0,2,0.2,2.8c0.1,0.8,0.4,1.5,0.8,2c0.4,0.5,0.9,0.9,1.6,1.2c0.7,0.2,1.7,0.3,2.9,0.3
		c0.8,0,1.6-0.1,2.3-0.3C1519.8,577.1,1520.5,576.8,1521.3,576.5"/>
	<path class="st0" d="M1570.3,581.7v-21.9c0-2-0.3-3.6-0.9-4.9c-0.6-1.3-1.4-2.4-2.3-3.2c-1-0.8-2.1-1.3-3.3-1.5
		c-1.2-0.2-2.4,0-3.6,0.4c-1.2,0.4-2.3,1.2-3.4,2.2c-1.1,1-2,2.3-2.7,3.9c-0.1,0.2-0.2,0.5-0.4,0.9c-0.2,0.4-0.2,0.7-0.2,0.9v22.5
		l-4.4,0.8v-21.9c0-2-0.3-3.6-0.9-5c-0.6-1.4-1.4-2.4-2.4-3.2c-0.9-0.7-2.1-1.2-3.3-1.4c-1.2-0.2-2.4-0.1-3.6,0.3
		c-1.2,0.4-2.3,1.1-3.4,2.1c-1,1-1.9,2.4-2.6,3.9c-0.1,0.3-0.2,0.6-0.3,0.9c-0.2,0.4-0.2,0.7-0.2,0.9v22.5l-4.5,0.8v-34.6
		c1.4-0.3,2.9-0.6,4.3-1.1v5.5c1.3-1.8,2.9-3.2,4.8-4.2c1.9-1,3.8-1.4,5.7-1.3c1.9,0,3.8,0.6,5.5,1.7c1.7,1.1,3.1,2.7,4.2,4.8
		c1.3-2.1,2.8-3.7,4.7-4.8c1.8-1.1,4-1.7,6.5-1.7c2,0,3.7,0.4,5.1,1.1c1.4,0.8,2.5,1.8,3.4,3c0.9,1.3,1.6,2.7,2,4.4
		c0.4,1.6,0.6,3.3,0.6,5.1v21.2L1570.3,581.7z"/>
	<path class="st0" d="M1616.2,571.1c-0.9,2.2-2.2,4.1-3.8,5.7c-1.6,1.6-3.5,2.9-5.6,3.9c-2.2,0.9-4.5,1.4-6.9,1.4
		c-2.5,0-4.8-0.5-6.9-1.4c-2.2-1-4-2.2-5.6-3.9c-1.6-1.6-2.8-3.5-3.7-5.7c-0.9-2.2-1.4-4.5-1.4-7c0-2.5,0.5-4.8,1.4-7
		c0.9-2.2,2.1-4.1,3.7-5.8c1.5-1.6,3.4-2.9,5.6-3.9c2.2-1,4.5-1.4,7-1.4c2.5,0,4.9,0.5,7,1.4c2.2,0.9,4,2.2,5.6,3.9
		c1.6,1.6,2.8,3.6,3.7,5.8c0.9,2.2,1.4,4.5,1.4,7C1617.5,566.6,1617.1,568.9,1616.2,571.1 M1612,558.9c-0.7-1.7-1.6-3.1-2.8-4.4
		c-1.2-1.2-2.6-2.2-4.2-3c-1.6-0.8-3.3-1.1-5.2-1.1c-1.8,0-3.6,0.4-5.2,1.1c-1.6,0.8-3,1.8-4.1,3c-1.2,1.3-2.1,2.7-2.8,4.4
		c-0.7,1.7-1,3.4-1,5.2s0.3,3.5,1,5.2c0.7,1.7,1.6,3.1,2.8,4.3c1.2,1.3,2.6,2.2,4.2,3c1.6,0.8,3.3,1.1,5.1,1.1
		c1.9,0,3.6-0.3,5.2-1.1c1.6-0.7,3-1.7,4.2-3c1.2-1.2,2-2.7,2.7-4.3c0.7-1.7,1-3.4,1-5.2h0.1C1613,562.2,1612.6,560.5,1612,558.9"/>
	<path class="st0" d="M1641.3,576.5l-0.1,4.3c-1.5,0.5-3.1,0.8-4.6,1c-1.6,0.1-3-0.1-4.4-0.5c-1.3-0.5-2.5-1.2-3.4-2.3
		c-1-1.1-1.6-2.6-1.9-4.4h-0.1c-0.1-7.2-0.1-14.5-0.1-21.5c0-7.1,0.1-14.3,0.1-21.5c0.7-0.2,1.4-0.4,2.2-0.6
		c0.8-0.2,1.5-0.4,2.2-0.7v41.2c0,1.1,0.1,2,0.2,2.8c0.1,0.8,0.4,1.5,0.8,2c0.4,0.5,1,0.9,1.7,1.2c0.7,0.2,1.7,0.3,2.9,0.3
		c0.8,0,1.6-0.1,2.4-0.3C1639.8,577.1,1640.6,576.8,1641.3,576.5"/>
	<path class="st0" d="M1679.6,571.1c-0.9,2.2-2.2,4.1-3.8,5.7c-1.6,1.6-3.5,2.9-5.7,3.9c-2.2,0.9-4.4,1.4-6.9,1.4
		c-2.5,0-4.8-0.5-7-1.4c-2.1-1-4-2.2-5.6-3.9c-1.5-1.6-2.8-3.5-3.7-5.7c-0.9-2.2-1.3-4.5-1.3-7c0-2.5,0.5-4.8,1.3-7
		c0.9-2.2,2.2-4.1,3.7-5.8c1.6-1.6,3.4-2.9,5.6-3.9c2.1-1,4.5-1.4,7-1.4c2.5,0,4.8,0.5,7,1.4c2.2,0.9,4.1,2.2,5.6,3.9
		c1.6,1.6,2.9,3.6,3.8,5.8c0.9,2.2,1.3,4.5,1.3,7C1680.9,566.6,1680.5,568.9,1679.6,571.1 M1675.4,558.9c-0.7-1.7-1.6-3.1-2.8-4.4
		c-1.2-1.2-2.6-2.2-4.2-3c-1.6-0.8-3.3-1.1-5.2-1.1c-1.8,0-3.6,0.4-5.2,1.1c-1.6,0.8-3,1.8-4.2,3c-1.2,1.3-2.1,2.7-2.7,4.4
		c-0.7,1.7-1,3.4-1,5.2s0.3,3.5,1,5.2c0.7,1.7,1.6,3.1,2.7,4.3c1.2,1.3,2.6,2.2,4.2,3c1.6,0.8,3.3,1.1,5.2,1.1
		c1.8,0,3.6-0.3,5.2-1.1c1.6-0.7,3-1.7,4.2-3c1.2-1.2,2.1-2.7,2.7-4.3c0.7-1.7,1-3.4,1-5.2h0
		C1676.4,562.2,1676.1,560.5,1675.4,558.9"/>
	<path class="st0" d="M1718.4,550.2h-6.9c1.4,1.7,2.4,3.5,3,5.3c0.6,1.9,0.7,3.8,0.4,5.5c-0.3,1.8-1,3.5-2.1,5.2
		c-1.1,1.7-2.6,3-4.5,4.1c2.2,1.1,3.9,2.4,5.1,4.1c1.3,1.7,2.1,3.5,2.4,5.5c0.4,2,0.3,4-0.2,6c-0.5,2-1.4,3.8-2.6,5.5
		c-1.3,1.7-2.9,3-4.9,4c-2,1-4.4,1.5-7.1,1.5c-2.7,0-5.1-0.5-7.1-1.5c-2-1-3.7-2.4-4.9-4.1c-1.3-1.7-2.2-3.5-2.7-5.5
		c-0.5-2-0.6-4-0.2-6c0.4-2,1.2-3.8,2.5-5.5c1.3-1.7,3.1-3,5.3-3.9c-2.1-1.1-3.7-2.5-4.8-4.1c-1.2-1.6-1.8-3.4-2.1-5.2
		c-0.3-1.8-0.2-3.6,0.3-5.4c0.5-1.8,1.4-3.4,2.7-4.9c1.2-1.5,2.8-2.6,4.7-3.5c1.9-0.9,4.1-1.3,6.6-1.3c2.3,0,4.4,0.5,6.3,1.5v-0.5
		l10.7-1.1L1718.4,550.2L1718.4,550.2z M1711.3,582.7c0-2.1-0.5-3.9-1.5-5.4c-1-1.5-2.3-2.6-3.8-3.3c-1.6-0.8-3.2-1.1-5-1.1
		s-3.4,0.4-5,1.1c-1.5,0.8-2.8,1.9-3.8,3.4c-1,1.5-1.5,3.4-1.5,5.7c0,1.6,0.3,3,0.9,4.2c0.6,1.2,1.4,2.2,2.3,3
		c1,0.8,2.1,1.4,3.3,1.8c1.2,0.4,2.5,0.6,3.8,0.6c1.3,0,2.5-0.2,3.8-0.6c1.2-0.4,2.4-1,3.3-1.8c1-0.8,1.8-1.9,2.3-3.1
		C1711,585.8,1711.3,584.3,1711.3,582.7 M1710.2,559.7c0-1.5-0.3-2.8-0.8-4c-0.5-1.2-1.2-2.1-2.1-2.9c-0.9-0.8-1.8-1.4-3-1.8
		c-1.1-0.4-2.2-0.6-3.3-0.6c-1.2,0-2.2,0.2-3.4,0.6c-1.1,0.4-2.1,1-3,1.8c-0.9,0.8-1.6,1.8-2.1,3c-0.5,1.2-0.8,2.6-0.8,4.2
		c0,1.4,0.2,2.7,0.8,3.7c0.5,1.1,1.2,2,2.1,2.7c0.9,0.7,1.8,1.3,2.9,1.6c1.1,0.4,2.2,0.6,3.4,0.6c1.2,0,2.3-0.2,3.4-0.5
		c1.2-0.3,2.1-0.9,3-1.6c0.8-0.7,1.6-1.6,2.1-2.8C1709.9,562.5,1710.2,561.2,1710.2,559.7L1710.2,559.7L1710.2,559.7z"/>
	<path class="st0" d="M1725.4,542.7h-3.8l8-11.1l6.5-0.1L1725.4,542.7z M1722.9,581.7v-34.2c0.8-0.2,1.5-0.5,2.2-0.7
		c0.7-0.2,1.5-0.5,2.2-0.8v34.9L1722.9,581.7z"/>
	<path class="st0" d="M1761.5,582.2l-0.4-4.2c-1.1,1.2-2.5,2.2-4,3c-1.6,0.7-3.2,1.1-4.9,1.1c-3.1,0-5.6-0.7-7.4-2.1
		c-1.8-1.4-3.1-3.2-3.8-5.1c-0.7-2-0.8-4.1-0.2-6.3c0.5-2.2,1.6-4.1,3.3-5.7c1.7-1.6,3.9-2.7,6.8-3.3s6.2-0.2,10.2,1v-4.1
		c0-2.2-0.7-3.7-2.1-4.7c-1.4-1-3.1-1.5-5.1-1.5c-1.8,0-3.7,0.4-5.6,1.2c-1.9,0.8-3.6,1.7-5.1,2.7l0.8-5c1.7-0.8,3.3-1.5,5.1-2.1
		c1.8-0.6,3.6-0.9,5.4-0.9c3,0,5.3,0.5,6.8,1.5c1.5,1,2.6,2.4,3.2,4.1c0.6,1.7,0.9,3.6,0.9,5.8c0,2.2,0.1,4.4,0.1,6.7v8.3
		c0,2.7,0.1,5.4,0.2,8.2L1761.5,582.2z M1760.3,565.3c-0.5-0.5-1-0.9-1.7-1.2c-0.6-0.3-1.3-0.6-2-0.8c-0.7-0.2-1.3-0.3-1.8-0.3
		c-1.2,0-2.5,0.2-3.7,0.5c-1.2,0.4-2.3,0.9-3.2,1.6c-1,0.7-1.7,1.6-2.3,2.6c-0.6,1-0.9,2.3-0.9,3.6c0,1.9,0.7,3.3,1.9,4.4
		c1.2,1.1,2.7,1.8,4.3,2c1.7,0.2,3.4,0,5.2-0.7c1.7-0.8,3.2-2,4.2-3.8c0.1-0.1,0.2-0.4,0.4-0.7c0.1-0.3,0.2-0.6,0.2-0.8
		c0-0.8,0-1.7,0-2.5c0-0.9,0.1-1.7,0.1-2.5C1761.1,566.3,1760.8,565.8,1760.3,565.3"/>
	<polygon class="st0" points="1220.1,120.3 1125.5,120.3 1123.4,134.7 1165,134.7 1165,251.4 1180,249.9 1180,134.5 1220.1,134.5 	
		"/>
	<polygon class="st0" points="1466.1,120.3 1371.5,120.3 1369.4,134.7 1411,134.7 1411,251.4 1426,249.9 1426,134.5 1466.1,134.5 	
		"/>
	<polygon class="st0" points="1071.2,120.3 976.7,120.3 974.6,134.7 1016.2,134.7 1016.2,251.4 1031.2,249.9 1031.2,134.5 
		1071.2,134.5 	"/>
	<polygon class="st0" points="1089.9,251.4 1104.7,249.9 1104.7,118.6 1089.9,120.3 	"/>
	<path class="st0" d="M946.4,185c-4.6-2.8-9.7-5-15.2-6.7c-5.3-1.7-10.3-3.6-14.7-5.6c-4.4-2-8.1-4.5-11-7.4
		c-2.7-2.8-4.2-6.7-4.2-11.9c0-3.5,0.7-6.5,2-9.1c1.3-2.6,3.1-4.8,5.3-6.5c2.2-1.7,4.8-3,7.8-3.9c3-0.9,6.2-1.3,9.5-1.3
		c4.9,0,9.6,1.1,14.1,3.3c4.5,2.2,8.7,4.9,12.4,8.1l1.6,1.4l5-14l-0.6-0.6c-3.8-3.9-8.3-7-13.3-9.1c-5-2.1-10.3-3.3-15.6-3.7
		c-5.3-0.3-10.7,0.1-15.9,1.5c-5.2,1.4-10,3.6-14.1,6.6c-4.2,3-7.5,6.9-10.1,11.6c-2.5,4.7-3.9,10.3-3.9,16.5
		c0,7.6,1.7,13.8,4.9,18.4c3.2,4.5,7.2,8.2,12,10.9c4.6,2.7,9.8,4.9,15.2,6.5c5.3,1.6,10.2,3.5,14.7,5.6c4.4,2.1,8.2,4.7,11.1,7.8
		c2.8,2.9,4.2,7.1,4.2,12.5c0,3.4-0.7,6.6-2,9.3c-1.3,2.8-3.1,5.2-5.4,7.2c-2.2,2-4.9,3.6-7.9,4.6c-3,1.1-6.2,1.6-9.5,1.6
		c-6,0-11.5-1.6-16.5-4.7c-5.1-3.1-9.7-6.9-13.6-11.2l-1.5-1.6l-6.5,13.6l0.5,0.7c3.8,4.9,8.4,8.9,13.7,11.7
		c5.3,2.8,10.8,4.7,16.6,5.5c2.4,0.3,4.8,0.5,7.2,0.5c3.3,0,6.7-0.3,9.9-1c5.7-1.1,10.9-3.3,15.4-6.4c4.5-3.1,8.2-7.3,11-12.4
		s4.2-11.3,4.2-18.2c0-7.7-1.6-14-4.8-18.7C955.2,191.6,951.1,187.8,946.4,185"/>
	<polygon class="st0" points="726.1,251.4 740.9,249.9 740.9,118.6 726.1,120.3 	"/>
	<path class="st0" d="M1596,137.3c-6.2-6-13.5-10.8-21.9-14.3c-8.4-3.4-17.3-5.2-26.6-5.2c-9.5,0-18.5,1.8-26.8,5.2
		c-8.3,3.4-15.6,8.2-21.8,14.3c-6.2,6.1-11.1,13.3-14.7,21.5c-3.6,8.2-5.3,17.2-5.3,26.7c0,9.6,1.8,18.6,5.5,26.8
		c3.6,8.1,8.6,15.4,14.7,21.4c6.2,6.1,13.5,10.9,21.8,14.3c8.3,3.4,17.3,5.1,26.8,5.1c9.3,0,18.3-1.7,26.6-5.1
		c8.3-3.4,15.6-8.2,21.8-14.3c6.2-6,11.1-13.3,14.7-21.5c3.6-8.2,5.4-17.2,5.4-26.7c0-9.5-1.8-18.4-5.4-26.7
		C1607.1,150.6,1602.1,143.4,1596,137.3 M1596.1,206.1c-2.8,6.4-6.6,12.1-11.3,16.8c-4.8,4.8-10.4,8.6-16.8,11.4
		c-6.4,2.8-13.3,4.2-20.5,4.2c-7.4,0-14.3-1.4-20.7-4.1c-6.3-2.7-11.9-6.6-16.6-11.4c-4.7-4.8-8.5-10.5-11.2-16.8
		c-2.7-6.4-4.1-13.3-4.1-20.7c0-7.2,1.4-14.2,4.1-20.6c2.7-6.4,6.5-12.1,11.2-16.9s10.3-8.6,16.7-11.4c6.4-2.7,13.4-4.1,20.8-4.1
		c7.3,0,14.1,1.4,20.5,4.2c6.4,2.8,12,6.6,16.7,11.5c4.8,4.8,8.6,10.5,11.3,16.9c2.7,6.4,4.1,13.2,4.1,20.5
		C1600.2,192.8,1598.8,199.7,1596.1,206.1"/>
	<path class="st0" d="M851.7,120.3v100.6c-13.8-16.7-27.8-33.3-41.8-49.2c-14.8-17-29.8-34.7-44.3-52.4l-0.5-0.6l-7.6,0.5v132.2
		l15.2-1.6v-99.8l86.3,102l0.4,0.5h7.5V118.7L851.7,120.3z"/>
	<path class="st0" d="M1333.4,234.9c-10,11.1-23.2,16.7-39.4,16.7c-16,0-29.2-5.3-39.4-15.9c-10.2-10.6-15.2-24.4-15.2-41.4v-74.1
		h14.3v73.3c0,13.8,3.6,24.7,10.8,32.6c7.3,7.9,17.2,11.9,29.7,11.9c12.2,0,21.9-4.1,29.1-12.3c3.6-4.1,6.3-8.9,8.2-14.4
		c1.9-5.4,2.8-11.7,2.8-18.8v-72.4h14.3v73.1C1348.6,210.1,1343.6,224,1333.4,234.9"/>
	<path class="st0" d="M888.8,325c-8.6-8.4-18.8-15.1-30.4-19.8c-11.6-4.7-24.1-7.2-37-7.2c-13.2,0-25.7,2.5-37.2,7.2
		c-11.5,4.8-21.7,11.4-30.2,19.8c-8.6,8.4-15.4,18.5-20.4,29.9c-4.9,11.4-7.5,23.9-7.5,37.1c0,13.4,2.5,25.9,7.6,37.2
		c5,11.3,11.9,21.4,20.5,29.8c8.6,8.4,18.8,15.1,30.3,19.9c11.5,4.7,24,7.2,37.2,7.2c13,0,25.4-2.4,36.9-7.2
		c11.5-4.8,21.7-11.5,30.3-19.9c8.5-8.4,15.5-18.4,20.5-29.9c5-11.4,7.6-23.9,7.6-37.1s-2.5-25.6-7.6-37.1
		C904.3,343.4,897.4,333.4,888.8,325 M894.8,392c0,10-2,19.7-5.7,28.6c-3.8,9-9.1,16.8-15.7,23.4c-6.6,6.6-14.5,11.9-23.4,15.8
		c-8.9,3.9-18.5,5.9-28.6,5.9c-10.3,0-19.9-1.9-28.7-5.7c-8.8-3.8-16.6-9.1-23.1-15.8c-6.6-6.7-11.8-14.5-15.6-23.4
		c-3.8-8.8-5.7-18.5-5.7-28.7c0-10.1,1.9-19.7,5.7-28.6c3.8-8.9,9-16.9,15.6-23.5c6.5-6.7,14.3-12,23.2-15.8
		c8.9-3.8,18.6-5.7,28.9-5.7c10,0,19.6,2,28.5,5.8c8.8,3.9,16.7,9.2,23.3,15.9c6.6,6.7,11.9,14.6,15.7,23.4
		C892.8,372.3,894.8,381.9,894.8,392"/>
	<polygon class="st0" points="1014.3,356.1 1012.5,340.2 941.9,340.2 941.9,485.9 958.8,484.2 958.8,418.6 1005.1,418.8 
		1005.6,402.5 958.6,402.5 958.6,356.1 	"/>
	<polygon class="st0" points="1130.3,340.2 1025.2,340.2 1022.9,356.3 1069.1,356.3 1069.1,485.9 1085.8,484.2 1085.8,356.1 
		1130.3,356.1 	"/>
	<path class="st0" d="M1205.3,337h-6.1l-71,146.7l17.6,2.3l25.4-53.8h60.8l25.6,53.9l16.8-2.3L1205.3,337z M1224.2,416.4h-45.6
		l22.8-47.8L1224.2,416.4z"/>
	<polygon class="st0" points="1322,440.9 1260.9,299.3 1239.4,302.2 1318.9,485.9 1324.8,485.9 1406.7,302.2 1384.6,299.3 	"/>
	<polygon class="st0" points="1419.5,485.9 1435.9,484.2 1435.9,338.4 1419.5,340.2 	"/>
	<path class="st0" d="M1528.5,410.4c-5.1-3.1-10.8-5.6-16.8-7.5c-5.9-1.9-11.5-4-16.4-6.3c-4.8-2.2-8.9-5-12.2-8.2
		c-3.1-3.1-4.6-7.5-4.6-13.2c0-3.8,0.7-7.2,2.2-10.1c1.5-2.9,3.4-5.3,5.9-7.2c2.5-1.9,5.4-3.4,8.7-4.3c3.3-1,6.8-1.5,10.5-1.5
		c5.4,0,10.7,1.2,15.6,3.6c5,2.5,9.6,5.5,13.7,9.1l1.8,1.5l5.6-15.6l-0.7-0.7c-4.2-4.4-9.2-7.8-14.8-10.1
		c-5.6-2.3-11.4-3.7-17.3-4.1c-5.9-0.4-11.9,0.1-17.7,1.7c-5.8,1.6-11.1,4-15.7,7.3c-4.6,3.3-8.4,7.7-11.2,12.9
		c-2.8,5.2-4.3,11.4-4.3,18.3c0,8.5,1.8,15.4,5.4,20.5c3.5,5,8,9.1,13.3,12.1c5.1,3,10.8,5.4,16.8,7.3c5.9,1.8,11.3,3.9,16.3,6.3
		c4.9,2.3,9.1,5.2,12.3,8.6c3.1,3.3,4.7,8,4.7,13.9c0,3.8-0.7,7.3-2.2,10.3c-1.5,3.1-3.5,5.7-6,8c-2.5,2.2-5.4,3.9-8.7,5.1
		c-3.4,1.2-6.9,1.8-10.5,1.8c-6.6,0-12.8-1.8-18.4-5.2c-5.7-3.5-10.8-7.7-15.1-12.5l-1.6-1.8l-7.2,15.1l0.6,0.8
		c4.2,5.5,9.3,9.8,15.2,13c5.8,3.1,12.1,5.2,18.4,6.1c2.7,0.4,5.3,0.6,8,0.6c3.7,0,7.4-0.4,11-1.1c6.3-1.3,12.1-3.6,17.1-7.1
		c5-3.5,9.1-8.1,12.2-13.8c3.1-5.7,4.7-12.5,4.7-20.3c0-8.6-1.8-15.6-5.4-20.8C1538.2,417.7,1533.7,413.5,1528.5,410.4"/>
	<polygon class="st0" points="1571.4,485.9 1587.9,484.2 1587.9,338.4 1571.4,340.2 	"/>
	<path class="st0" d="M1741.7,357.3c-6.9-6.7-15-12-24.3-15.9c-9.3-3.8-19.2-5.7-29.6-5.7c-10.5,0-20.5,2-29.7,5.7
		c-9.2,3.8-17.3,9.1-24.2,15.9c-6.8,6.7-12.3,14.8-16.3,23.9c-3.9,9.1-5.9,19.1-5.9,29.6c0,10.7,2,20.7,6.1,29.7
		c4,9.1,9.5,17.1,16.4,23.8c6.8,6.8,15,12.1,24.2,15.9c9.2,3.8,19.2,5.7,29.7,5.7c10.3,0,20.3-1.9,29.5-5.7
		c9.2-3.8,17.3-9.2,24.2-15.9c6.8-6.7,12.3-14.7,16.4-23.9c4-9.1,6-19.1,6-29.6c0-10.5-2-20.5-6-29.7
		C1754.1,372,1748.5,364,1741.7,357.3 M1741.9,433.7c-3.1,7.2-7.3,13.4-12.6,18.7c-5.3,5.3-11.6,9.5-18.7,12.6
		c-7.1,3.1-14.8,4.7-22.8,4.7c-8.2,0-15.9-1.5-23-4.6c-7-3-13.3-7.3-18.5-12.6c-5.2-5.3-9.4-11.6-12.4-18.7c-3-7-4.6-14.8-4.6-22.9
		c0-8.1,1.6-15.8,4.6-22.9c3-7.1,7.2-13.5,12.4-18.8c5.2-5.3,11.5-9.6,18.6-12.6c7.1-3,14.9-4.6,23.1-4.6c8.1,0,15.7,1.6,22.8,4.7
		c7.1,3.1,13.3,7.4,18.6,12.7c5.3,5.4,9.5,11.6,12.6,18.7c3,7.1,4.6,14.7,4.6,22.8C1746.4,418.9,1744.9,426.6,1741.9,433.7"/>
	<polygon class="st0" points="1723.9,298 1700.4,298.5 1675.3,333.6 1689.9,333.6 	"/>
	<path class="st0" d="M1891.4,339.1v111.8c-15.3-18.6-30.9-37-46.4-54.7c-16.5-18.9-33.1-38.5-49.2-58.3l-0.5-0.7l-8.4,0.6v146.8
		l16.9-1.8V372.1l95.8,113.3l0.5,0.6h8.3V337.4L1891.4,339.1z"/>
	<g>
		<path class="st0" d="M330.6,561.7c16.7-11.9,36.2-25.8,56.1-40.8c-76.1-30.6-120.5-113-101.2-195.3c8.8-37.5,29.5-69.1,57.1-91.7
			c-25.1-13.6-48.7-25.4-67.2-34.2c-27.7,29-48.2,65.4-58,107.2c-24.2,103.1,24.2,206.3,112,255.8
			C329.8,562.3,330.2,562,330.6,561.7z"/>
		<path class="st0" d="M496.9,133.6C418,115,339,139.1,284.1,190.8c16.7,8.4,41.8,21.3,68.2,35.5c38.2-27,87.3-38.2,136.4-26.7
			c58.7,13.8,103,56.7,121.2,109.8c15.9-17.3,33.2-32.5,45.5-42.6c1.7,3.9,3.4,7.9,4.9,12c-13.1,10.9-30.9,26.8-46.4,44.3
			c6.3,25.3,6.9,52.5,0.5,79.6c-3.4,14.6-8.7,28.4-15.5,41c8.7,16,20.1,32.8,33.5,51c-2.5,3.5-5,6.9-7.7,10.3
			c-12.9-17.3-24.1-33.5-33.1-49.1c-37.7,58.1-109.1,89.3-180.5,72.5c-3.6-0.9-7.2-1.8-10.7-2.9c-20.4,15.5-40.8,30.1-59.1,43.2
			c15.3,7.5,31.7,13.4,48.9,17.4c125,29.4,250.2-48.1,279.6-173.2C699.5,288.2,622,163,496.9,133.6z"/>
	</g>
</g>
</svg>
