<?xml version="1.0" encoding="UTF-8"?>
<svg width="100px" height="96px" viewBox="0 0 100 96" version="1.1" xmlns="http://www.w3.org/2000/svg" xmlns:xlink="http://www.w3.org/1999/xlink">
    <!-- Generator: Sketch 61.2 (89653) - https://sketch.com -->
    <title>Icono/rinopatia</title>
    <desc>Created with Sketch.</desc>
    <g id="Desktop" stroke="none" stroke-width="1" fill="none" fill-rule="evenodd">
        <g id="Servicios" transform="translate(-565.000000, -658.000000)">
            <g id="Icono/rinopatia" transform="translate(565.000000, 658.000000)">
                <g id="Group-5">
                    <g id="ojo">
                        <path d="M13.0781139,23.5905494 C12.4940659,23.1037349 11.7312198,22.9039216 10.984452,23.0435385 C9.50970654,23.3183061 7.31453837,24.0637711 5.23249925,26.0547198 C2.79751303,28.3829628 1.15016834,31.8061984 0.3361817,36.2292776 C0.330757706,36.2587932 0.326302281,36.2885031 0.322621714,36.3182129 C0.00512430655,38.9447196 -0.212997768,41.7867683 0.3361817,44.7713467 C1.15016834,49.1944258 2.79751303,52.6176615 5.23230553,54.9457103 C7.31434466,56.9364648 9.50951282,57.6819298 10.9842583,57.9566974 C11.1400044,57.9856305 11.2963317,58 11.4518841,58 C12.0413561,58 12.6157184,57.7945554 13.0781139,57.4092982 C13.6639054,56.9211244 14,56.2030392 14,55.4391269 L14,25.5609148 C14.000193,24.7970026 13.6640991,24.0789173 13.0781139,23.5905494 Z M11.0944816,55.0027998 C8.60002513,54.3957867 4.6505821,52.1597802 3.19385208,44.2429773 C2.74443537,41.8005552 2.87093068,39.464545 3.20198807,36.7135676 C4.66549808,28.8330768 8.60467427,26.6036725 11.0946753,25.9974361 L11.0946753,55.0027998 L11.0944816,55.0027998 Z" id="Shape" fill="#0A5ABA" fill-rule="nonzero"></path>
                        <path d="M90.3745655,67.1382417 C90.0855832,66.6420454 90.1247839,66.0228737 90.4746357,65.5604468 C95.7687052,58.5668511 98.6218885,50.2408259 98.7262925,41.4820441 C98.995379,18.9113597 80.6935592,0.303999218 57.9285679,0.00339250177 C50.3478544,-0.092645488 42.9087757,1.8519286 36.4156364,5.63781643 C35.712387,6.04792988 35.4777736,6.94526045 35.8916467,7.64212147 C36.3055198,8.33898249 37.2110765,8.5716599 37.9143259,8.16135125 C43.9415871,4.64679026 50.8497814,2.83944119 57.8891702,2.93118479 C68.0955452,3.06587222 77.6662379,7.15685634 84.838397,14.450278 C92.0093741,21.7427236 95.8924141,31.3305163 95.77166,41.4474939 C95.6747416,49.5800767 93.0258355,57.3107445 88.1109691,63.8034591 C87.0497914,65.2053796 86.9337651,67.0888563 87.8154862,68.6020402 L96.8070323,84.0342911 L94.0097937,85.6345339 L83.6749821,67.9209904 C82.6398069,66.1466299 82.8157177,63.9625465 84.1233282,62.3566429 C86.3026135,59.6802672 88.0530545,56.7085551 89.326192,53.5240759 C89.6267966,52.7723639 89.2554731,51.9216859 88.4968699,51.623812 C87.7384636,51.3257429 86.8797902,51.6938885 86.5791855,52.4456005 C85.4157707,55.3554344 83.815829,58.0714356 81.823683,60.5178668 C79.7423011,63.0738047 79.4649411,66.5549866 81.1168877,69.3863505 L91.4509114,87.0983324 L87.5365503,89.3378525 L78.2510971,73.4650371 C76.295197,70.1216658 72.20591,68.701787 68.5287232,70.0886771 C64.9663808,71.4320378 61.2103985,72.1132828 57.3647865,72.1132828 C53.6547026,72.1132828 50.0236111,71.4788856 46.5725673,70.2278541 C42.9129125,68.9012806 40.4542974,65.3982363 40.4542974,61.5112353 L40.4542974,20.5076985 C40.4542974,16.6218687 42.9137004,13.1186293 46.5743402,11.7902989 C50.0978758,10.5117444 53.7283763,9.86329278 57.3647865,9.86329278 C74.684618,9.86329278 88.7754118,23.8260843 88.7754118,40.9885806 C88.7754118,42.7320996 88.6288522,44.4806937 88.3396729,46.1857584 C88.2043417,46.983147 88.7472424,47.7381774 89.551744,47.8722792 C90.3576245,48.0065762 91.1183946,47.4684121 91.2537258,46.6712187 C91.5698925,44.8062859 91.7302413,42.8943101 91.7302413,40.9887758 C91.7302413,22.2117872 76.3139109,6.93550049 57.3647865,6.93550049 C53.3804944,6.93550049 49.4082186,7.64387826 45.5580758,9.04111389 C40.737961,10.7900984 37.4992709,15.3983603 37.4992709,20.5078937 L37.4992709,61.5118209 C37.4992709,66.6229159 40.73737,71.2309826 45.5570909,72.9782104 C49.3343479,74.3475325 53.3070176,75.0418559 57.3645895,75.0418559 C61.5706908,75.0418559 65.6802676,74.2961951 69.5794606,72.8257598 C71.8962439,71.9514627 74.4685214,72.8382525 75.6943817,74.9339108 L84.977274,90.8024318 L81.4230081,92.8358215 L73.6013775,79.4115845 C72.5738848,77.6481552 70.489548,76.8273427 68.531481,77.4158682 C55.1496493,81.4383374 40.5598833,77.8989861 30.6166851,68.3642877 C23.2238987,61.2750443 19.0831977,51.720826 18.9577159,41.4619386 C18.818445,30.0828032 23.7610867,19.3308427 32.5186103,11.9626598 C33.1405034,11.4393308 33.2165411,10.5154532 32.6886115,9.89901423 C32.160288,9.28277046 31.2281378,9.20722838 30.6060477,9.73055735 C21.1756109,17.6650131 15.8531751,29.2434468 16.0030834,41.4972696 C16.1384146,52.5430049 20.5984342,62.8319529 28.5618967,70.4683395 C36.5338296,78.1129244 47.0727214,82.1943438 58.2344913,81.9686935 C62.0302652,81.8910043 65.7832926,81.3018932 69.3891696,80.217757 C70.0254428,80.026657 70.7052506,80.2970079 71.0422981,80.8755782 L79.1879751,94.8561329 C79.4960653,95.3849274 79.9934616,95.7630282 80.5885642,95.9211395 C80.7873258,95.9740385 80.9890421,96 81.1893796,96 C81.5890695,96 81.9836377,95.896154 82.3388082,95.6927565 L98.8450767,86.2494113 C99.3787189,85.9441198 99.7604828,85.4512419 99.9200436,84.86135 C100.079998,84.2716533 99.9982481,83.6557999 99.6901579,83.1268102 L90.3745655,67.1382417 Z" id="Path" fill="#444655" fill-rule="nonzero"></path>
                        <path d="M28.5126138,25.700967 C24.5487501,28.3572135 22.9520236,33.25034 22.3105099,36.8873096 C22.3053094,36.9168342 22.3010376,36.9465531 22.2975087,36.976272 C22.0046115,39.5037366 21.8034652,42.2386507 22.3105099,45.1132241 C22.9520236,48.7501937 24.5487501,53.6431259 28.5126138,56.2991781 C29.2087323,56.7655509 29.9863866,57 30.7679412,57 C31.4579306,57 32.1510774,56.817219 32.793334,56.449715 C34.154554,55.6711968 35,54.1811736 35,52.5613975 L35,29.4383592 C35,27.8185831 34.1543683,26.3287541 32.793334,25.5500417 C31.4230132,24.7664733 29.8227579,24.8229975 28.5126138,25.700967 Z M32.2140401,52.5615917 C32.2140401,53.1243081 31.9308009,53.6221479 31.4564447,53.8935026 C31.2343109,54.0203421 30.6488878,54.2701361 30.0155463,53.8457193 C27.5436569,52.1894258 25.8267627,48.9867793 25.0502228,44.5843057 C24.6379008,42.2462261 24.7541682,40.0077921 25.0580235,37.3715525 C25.838278,32.9918051 27.5520148,29.8046979 30.0155463,28.1538431 C30.6490736,27.7292322 31.2343109,27.9792204 31.4564447,28.1060598 C31.9308009,28.3774146 32.2140401,28.8752544 32.2140401,29.4379708 L32.2140401,52.5615917 Z" id="Shape" fill="#000000" fill-rule="nonzero"></path>
                        <path d="M31.6641846,12.6999512 C33.2912191,11.3487956 35.8098551,9.58341471 39.2200928,7.40380859 C42.6303304,5.22420247 42.2390951,4.32645671 38.0463867,4.71057129 C34.1125488,6.88684082 31.0863851,9.06050618 28.9678955,11.2315674 C26.8494059,13.4026286 27.7481689,13.8920898 31.6641846,12.6999512 Z" id="Path-10" fill="#444655"></path>
                    </g>
                    <path d="M88.6424561,55.3243408 C90.4770101,51.2013753 91.4697673,47.5349935 91.6207275,44.3251953 C91.7716878,41.1153971 90.7789307,40.9253337 88.6424561,43.7550049 C87.9038493,48.0627848 87.0091146,51.4936523 85.958252,54.0476074 C84.9073893,56.6015625 85.802124,57.0271403 88.6424561,55.3243408 Z" id="Path-11" fill="#444655"></path>
                    <circle id="Oval" fill="#0A5ABA" cx="76" cy="31" r="5"></circle>
                    <circle id="Oval-Copy" fill="#0A5ABA" cx="60" cy="41" r="5"></circle>
                    <circle id="Oval-Copy-2" fill="#0A5ABA" cx="74" cy="53" r="5"></circle>
                </g>
            </g>
        </g>
    </g>
</svg>