<?xml version="1.0" encoding="utf-8"?>
<!-- Generator: Adobe Illustrator 24.2.1, SVG Export Plug-In . SVG Version: 6.00 Build 0)  -->
<svg version="1.1" id="Capa_1" xmlns="http://www.w3.org/2000/svg" xmlns:xlink="http://www.w3.org/1999/xlink" x="0px" y="0px"
	 viewBox="0 0 90 53" style="enable-background:new 0 0 90 53;" xml:space="preserve">
<style type="text/css">
	.st0{clip-path:url(#SVGID_2_);fill:none;stroke:#979797;stroke-width:3;stroke-linejoin:round;stroke-miterlimit:10;}
	.st1{fill-rule:evenodd;clip-rule:evenodd;fill:#0664C2;}
	.st2{fill-rule:evenodd;clip-rule:evenodd;fill:#4E494F;}
</style>
<g>
	<defs>
		<rect id="SVGID_1_" width="90" height="53"/>
	</defs>
	<clipPath id="SVGID_2_">
		<use xlink:href="#SVGID_1_"  style="overflow:visible;"/>
	</clipPath>
	<path class="st0" d="M2,27.6c12,16,25.8,23.9,41.3,23.9s29.9-8,42.8-23.9C73.5,10.3,59.2,1.6,43.3,1.6S13.7,10.3,2,27.6z"/>
</g>
<path class="st1" d="M59.5,9.7l-4.6,6.8l8.1,6.3L45.8,41.2L54,25.5l-10-6.8l8.4-13.1c-2.5-0.9-5.1-1.4-7.9-1.4
	C32.1,4.1,22,14,22,26.1s10.1,22,22.5,22c12.4,0,22.5-9.8,22.5-22C67,19.6,64.1,13.7,59.5,9.7z"/>
<path class="st2" d="M54,25.5l-10-6.8l1.8-2.9c-0.6-0.1-1.2-0.2-1.8-0.2c-6.1,0-11,4.9-11,11s4.9,11,11,11c1.4,0,2.8-0.3,4.1-0.8
	L54,25.5z"/>
</svg>
